# xmcd
#
# Track frame offsets: 
#        150
#        15753
#        34424
#        45265
#        59892
#        83171
#        100564
#        125102
#        137492
#        160165
#        171315
#
# Disc length: 2467 seconds
#
# Revision: 0
# Processed by: cddbd v1.5.2PL0 Copyright (c) Steve Scherf et al.
# Submitted via: ExactAudioCopy v0.95b4
#
DISCID=8809a10b
DTITLE=The Browders - Better Than Ever
DYEAR=1900
DGENRE=Gospel
TTITLE0=I Need You To Carry Me
TTITLE1=Devil You Dummy
TTITLE2=Original Superman
TTITLE3=Mama's Moved Away
TTITLE4=God Put Us Together
TTITLE5=Get All Fired Up
TTITLE6=What Are You Waiting For
TTITLE7=City Of Gold
TTITLE8=Who Am I
TTITLE9=Coming Down
TTITLE10=He Has Risen
EXTD=
EXTT0=
EXTT1=
EXTT2=
EXTT3=
EXTT4=
EXTT5=
EXTT6=
EXTT7=
EXTT8=
EXTT9=
EXTT10=
PLAYORDER=
